# xmcd CD database file
#
# Track frame offsets:
#	150
#	54417
#	99602
#	133832
#	180580
#	222575
#	279775
#	316735
#
# Disc length: 4509 seconds
#
# Revision: 0
# Processed by: cddbd v1.5.1PL0 Copyright (c) Steve Scherf et al.
# Submitted via: CDex 1.51
#
DISCID=6f119b08
DTITLE=Ana and Norval Williamson - Beautiful Relaxing Music
DYEAR=1994
DGENRE=New Age
TTITLE0=Nightbells
TTITLE1=Magic Garden
TTITLE2=Tama Lakes
TTITLE3=Lazy River
TTITLE4=Island of Dreams
TTITLE5=Earth Love
TTITLE6=Winter Journey
TTITLE7=Sacred Mountains
EXTD=YEAR: 1994
EXTT0=
EXTT1=
EXTT2=
EXTT3=
EXTT4=
EXTT5=
EXTT6=
EXTT7=
PLAYORDER=
